<svg xmlns="http://www.w3.org/2000/svg" xmlns:xlink="http://www.w3.org/1999/xlink" xmlns:xodm="http://www.corel.com/coreldraw/odm/2003" xml:space="preserve" version="1.1" shape-rendering="geometricPrecision" text-rendering="geometricPrecision" image-rendering="optimizeQuality" fill-rule="evenodd" clip-rule="evenodd" viewBox="0 0 40 50" x="0px" y="0px"><g><path fill="black" d="M20 24.28c-0.39,-2.53 -1.84,-3.93 -4.28,-4.28 2.44,-0.35 3.89,-1.75 4.28,-4.28 -2.36,0 -4.28,1.92 -4.28,4.28 0,2.36 1.92,4.28 4.28,4.28zm-6.29 -4.28c0,-3.48 2.81,-6.3 6.29,-6.3 3.48,0 6.29,2.82 6.29,6.3 0,3.48 -2.81,6.3 -6.29,6.3 -3.48,0 -6.29,-2.82 -6.29,-6.3zm21.29 0c-10.1,-9.87 -20.1,-9.77 -30,0 9.9,9.77 19.9,9.87 30,0zm-10.72 0c0,-2.36 -1.92,-4.28 -4.28,-4.28 0.39,2.53 1.84,3.93 4.28,4.28 -2.44,0.35 -3.89,1.75 -4.28,4.28 2.36,0 4.28,-1.92 4.28,-4.28z"/></g><text x="0" y="55" fill="#000000" font-size="5px" font-weight="bold" font-family="'Helvetica Neue', Helvetica, Arial-Unicode, Arial, Sans-serif">Created by Wawan Waluyo</text><text x="0" y="60" fill="#000000" font-size="5px" font-weight="bold" font-family="'Helvetica Neue', Helvetica, Arial-Unicode, Arial, Sans-serif">from the Noun Project</text></svg>